%FSTAX24Y24*%
%MOIN*%
%IN fourses_shmance.bottomsoldermask.ger *%
%ADD10C,0.0700*%
%ADD11C,0.0800*%
%ADD12C,0.1000*%
%ADD13C,0.2169*%
%ADD14R,0.1000X0.1000*%
D13*X048Y018D03*Y002D03*X02Y018D03*Y002D03*D11*X0155Y008D03*X0165D03*
X0175D03*X0185D03*X0195D03*X0205D03*X0215D03*X0225D03*Y011D03*X0215D03*
X0205D03*X0195D03*X0185D03*X0175D03*X0165D03*X0155D03*
X041871Y016121D03*X03975Y014D03*X039D03*Y017D03*X0415Y007D03*
X042276Y009898D03*X04Y012D03*X042121Y014121D03*X042957Y012721D03*
X0405Y011D03*X031Y0155D03*Y0125D03*X035026Y015319D03*X034Y0125D03*
X040026Y007319D03*X039Y0045D03*X037Y007D03*X034D03*X042457Y002279D03*
X04Y004D03*X027232Y015219D03*X0285Y0125D03*X022721Y004543D03*
X021Y007D03*X015526Y012681D03*X0145Y0155D03*X008Y006D03*X005D03*
X024776Y003898D03*X024Y001D03*X027474Y007319D03*X0285Y0045D03*
X016526Y006819D03*X0155Y004D03*X018175Y006923D03*X0175Y004D03*
X019761Y006989D03*X0195Y004D03*X024Y009D03*Y006D03*X013Y012D03*Y009D03*
X014Y0125D03*Y0095D03*X004Y007D03*X002279Y004543D03*X01Y015D03*Y012D03*
X005779Y016957D03*X0075Y0145D03*X006Y0125D03*X003D03*Y009D03*
X000879Y006879D03*X021Y004D03*X022763Y001573D03*X019974Y015319D03*
X021Y0125D03*X0165Y014598D03*X018Y012D03*X018232Y015219D03*
X0195Y0125D03*X009Y006D03*X010268Y003281D03*X005Y014D03*
X002879Y016121D03*X002957Y010279D03*X0005Y012D03*X0245Y0105D03*
X023724Y013398D03*X0255Y011D03*X024724Y013898D03*X011944Y003203D03*
X012465Y006157D03*X013636Y003189D03*X014156Y006144D03*
X025979Y014954D03*X0265Y012D03*X029021Y009954D03*X0285Y007D03*
X0145Y003D03*X016428Y000702D03*X0255Y0065D03*Y0095D03*
X033268Y014719D03*X032Y012D03*X0395Y002D03*X037043Y003721D03*
X038Y001D03*X035702Y002928D03*X041681Y000974D03*X0445Y002D03*
X0435Y005D03*X046319Y006026D03*X0455Y0075D03*X0425D03*
X045207Y012207D03*X0445Y0115D03*X043793Y010793D03*X041293Y004293D03*
X042Y005D03*X042707Y005707D03*X028793Y015293D03*X0295Y016D03*
X030207Y016707D03*X035094Y016923D03*X036Y0165D03*X036906Y016077D03*
X035293Y003793D03*X036Y0045D03*X036707Y005207D03*X0235Y0145D03*
X022594Y014923D03*X021687Y015345D03*X012707Y007293D03*X012Y008D03*
X011293Y008707D03*X029793Y004293D03*X0305Y005D03*X031207Y005707D03*
X044842Y01356D03*X0445Y0145D03*X044158Y01544D03*X0455Y0025D03*
X045158Y00344D03*X044816Y004379D03*X01Y011D03*X009D03*X008D03*X007D03*
X006D03*X005D03*X004D03*Y008D03*X005D03*X006D03*X007D03*X008D03*
X009D03*X01D03*X031D03*X032D03*X033D03*X034D03*X035D03*X036D03*X037D03*
X038D03*Y011D03*X037D03*X036D03*X035D03*X034D03*X033D03*X032D03*
X031D03*X043Y017D03*X047Y008D03*D12*X048Y0145D03*D14*Y0135D03*D11*
X047Y011D03*Y01D03*D12*Y016D03*X044484Y017634D03*D11*X024Y0175D03*
X024819Y016926D03*X0325Y017D03*X0265Y0035D03*X0275Y0175D03*
X0335Y002D03*X0045Y003D03*X011Y0169D03*D10*X002Y0175D03*X0085Y002D03*
D11*X012Y0015D03*X01294Y001158D03*X0175Y0025D03*X027Y0095D03*
M02*