M48
FMAT,2
INCH,LZ
T1C0.0200
T2C0.0280
T3C0.0300
T4C0.0320
T5C0.0400
T6C0.1260
%
T1
X002Y0175
X0085Y002
T2
X0155Y008
X0165Y008
X0175Y008
X0185Y008
X0195Y008
X0205Y008
X0215Y008
X0225Y008
X0225Y011
X0215Y011
X0205Y011
X0195Y011
X0185Y011
X0175Y011
X0165Y011
X0155Y011
X041871Y016121
X03975Y014
X039Y014
X039Y017
X0415Y007
X042276Y009898
X04Y012
X042121Y014121
X042957Y012721
X0405Y011
X031Y0155
X031Y0125
X035026Y015319
X034Y0125
X040026Y007319
X039Y0045
X037Y007
X034Y007
X042457Y002279
X04Y004
X027232Y015219
X0285Y0125
X022721Y004543
X021Y007
X015526Y012681
X0145Y0155
X008Y006
X005Y006
X024776Y003898
X024Y001
X027474Y007319
X0285Y0045
X016526Y006819
X0155Y004
X018175Y006923
X0175Y004
X019761Y006989
X0195Y004
X024Y009
X024Y006
X013Y012
X013Y009
X014Y0125
X014Y0095
X004Y007
X002279Y004543
X01Y015
X01Y012
X005779Y016957
X0075Y0145
X006Y0125
X003Y0125
X003Y009
X000879Y006879
X021Y004
X022763Y001573
X019974Y015319
X021Y0125
X0165Y014598
X018Y012
X018232Y015219
X0195Y0125
X009Y006
X010268Y003281
X005Y014
X002879Y016121
X002957Y010279
X0005Y012
X0245Y0105
X023724Y013398
X0255Y011
X024724Y013898
X011944Y003203
X012465Y006157
X013636Y003189
X014156Y006144
X025979Y014954
X0265Y012
X029021Y009954
X0285Y007
X0145Y003
X016428Y000702
X0255Y0065
X0255Y0095
X033268Y014719
X032Y012
X0395Y002
X037043Y003721
X038Y001
X035702Y002928
X041681Y000974
X0445Y002
X0435Y005
X046319Y006026
X0455Y0075
X0425Y0075
X045207Y012207
X0445Y0115
X043793Y010793
X041293Y004293
X042Y005
X042707Y005707
X028793Y015293
X0295Y016
X030207Y016707
X035094Y016923
X036Y0165
X036906Y016077
X035293Y003793
X036Y0045
X036707Y005207
X0235Y0145
X022594Y014923
X021687Y015345
X012707Y007293
X012Y008
X011293Y008707
X029793Y004293
X0305Y005
X031207Y005707
X044842Y01356
X0445Y0145
X044158Y01544
X0455Y0025
X045158Y00344
X044816Y004379
X01Y011
X009Y011
X008Y011
X007Y011
X006Y011
X005Y011
X004Y011
X004Y008
X005Y008
X006Y008
X007Y008
X008Y008
X009Y008
X01Y008
X031Y008
X032Y008
X033Y008
X034Y008
X035Y008
X036Y008
X037Y008
X038Y008
X038Y011
X037Y011
X036Y011
X035Y011
X034Y011
X033Y011
X032Y011
X031Y011
X047Y011
X047Y01
T3
X043Y017
X047Y008
X0325Y017
X0265Y0035
X0275Y0175
X0335Y002
X0045Y003
X011Y0169
X0175Y0025
X027Y0095
T4
X024Y0175
X024819Y016926
X012Y0015
X01294Y001158
T5
X048Y0145
X048Y0135
X047Y016
X044484Y017634
T6
X048Y018
X048Y002
X02Y018
X02Y002
M30
