%FSTAX24Y24*%
%MOIN*%
%IN fourses_shmance.topsilkscreen.ger *%
%ADD10C,0.0050*%
%ADD11C,0.0071*%
%ADD12C,0.0100*%
%ADD13C,0.0200*%
D10*X001164Y019552D02*G01X001114Y019602D01*X001014D01*
X000964Y019552D01*Y019352D01*X001014Y019302D01*X001114D01*
X001164Y019352D01*X001464Y019602D02*X001264D01*Y019452D01*Y019302D01*
X001464D01*X001264Y019452D02*X001414D01*X001564Y019302D02*Y019602D01*
X001714D01*X001764Y019552D01*Y019502D01*X001714Y019452D01*
X001764Y019302D01*X001714Y019452D02*X001564D01*X001864Y019302D02*
Y019602D01*X002064Y019302D01*Y019602D01*X002664Y019552D02*
X002614Y019602D01*X002514D01*X002464Y019552D01*Y019352D01*
X002514Y019302D01*X002614D01*X002664Y019352D01*Y019552D01*
X002764Y019502D02*Y01919D01*Y019365D02*X002827Y019302D01*X002889D01*
X002952Y019365D01*Y01944D01*X002889Y019502D01*X002827D01*
X002764Y019452D01*X003064Y019415D02*X003252D01*Y01944D01*
X003189Y019502D01*X003127D01*X003064Y019452D01*Y019365D01*Y019352D01*
X003114Y019302D01*X003214D01*X003252Y019327D01*X003364Y019527D02*
Y019302D01*Y01944D02*X003427Y019502D01*X003489D01*X003552Y01944D01*
Y019302D01*X003964Y019602D02*Y019452D01*Y019302D01*Y019452D02*
X004164D01*Y019602D01*Y019452D02*Y019302D01*X004464D02*Y019502D01*
X004264Y019367D02*X004282Y01943D01*X004309Y019472D01*X004344Y019495D01*
X004369Y019502D01*X004389D01*X004424D01*X004464Y019482D01*
X004264Y019365D02*Y01935D01*X004267Y01934D01*X004274Y019327D01*
X004292Y019317D01*X004327Y019302D01*X004382D01*X004434Y019325D01*
X004464Y019352D01*X004564Y019527D02*Y019302D01*X004752Y019465D02*
X004689Y019502D01*X004627D01*X004564Y019465D01*X005052Y019602D02*
Y019302D01*Y01944D02*X004989Y019502D01*X004927D01*X004864Y019452D01*
Y019365D01*X004927Y019302D01*X004989D01*X005052Y019365D01*
X005164Y019502D02*Y019352D01*X005202Y019302D01*X005227D01*
X005264Y019352D01*X005302Y019302D01*X005327D01*X005364Y019352D01*
Y019502D01*X005264Y019352D02*Y019465D01*X005664Y019302D02*Y019502D01*
X005464Y019367D02*X005482Y01943D01*X005509Y019472D01*X005544Y019495D01*
X005569Y019502D01*X005589D01*X005624D01*X005664Y019482D01*
X005464Y019365D02*Y01935D01*X005467Y01934D01*X005474Y019327D01*
X005492Y019317D01*X005527Y019302D01*X005582D01*X005634Y019325D01*
X005664Y019352D01*X005764Y019527D02*Y019302D01*X005952Y019465D02*
X005889Y019502D01*X005827D01*X005764Y019465D01*X006064Y019415D02*
X006252D01*Y01944D01*X006189Y019502D01*X006127D01*X006064Y019452D01*
Y019365D01*Y019352D01*X006114Y019302D01*X006214D01*X006252Y019327D01*
X006664Y019602D02*Y019302D01*X006864D01*X007014Y019496D02*Y019302D01*
Y019577D02*Y019584D01*X007302Y019502D02*Y019477D01*X007264Y019502D01*
X007252D01*X007227Y01949D01*X007189Y019452D01*X007164Y01939D01*
Y019365D01*X007177Y019327D01*X007227Y019302D01*X007289D01*
X007352Y01934D01*X007464Y019415D02*X007652D01*Y01944D01*
X007589Y019502D01*X007527D01*X007464Y019452D01*Y019365D01*Y019352D01*
X007514Y019302D01*X007614D01*X007652Y019327D01*X007764Y019527D02*
Y019302D01*Y01944D02*X007827Y019502D01*X007889D01*X007952Y01944D01*
Y019302D01*X008189D02*X008127D01*X008064Y019327D02*X008089Y019302D01*
X008227D01*X008252Y019327D01*Y019377D01*X008227Y019402D01*X008089D01*
X008064Y019427D01*Y019477D01*X008089Y019502D01*X008227D01*
X008252Y019477D01*X008364Y019415D02*X008552D01*Y01944D01*
X008489Y019502D01*X008427D01*X008364Y019452D01*Y019365D01*Y019352D01*
X008414Y019302D01*X008514D01*X008552Y019327D01*X009164Y019552D02*
X009114Y019602D01*X009014D01*X008964Y019552D01*Y019352D01*
X009014Y019302D01*X009114D01*X009164Y019352D01*X009464Y019602D02*
X009264D01*Y019452D01*Y019302D01*X009464D01*X009264Y019452D02*
X009414D01*X009564Y019302D02*Y019602D01*X009714D01*X009764Y019552D01*
Y019502D01*X009714Y019452D01*X009764Y019302D01*X009714Y019452D02*
X009564D01*X009864Y019302D02*Y019602D01*X010064Y019302D01*Y019602D01*
X010164Y019452D02*X010364D01*X010664Y019552D02*X010614Y019602D01*
X010514D01*X010464Y019552D01*Y019352D01*X010514Y019302D01*X010614D01*
X010664Y019352D01*Y019552D01*X010764Y019602D02*Y019452D01*Y019302D01*
Y019452D02*X010964D01*Y019602D01*Y019452D02*Y019302D01*
X011064Y019602D02*Y019302D01*X011264D01*X011364Y019452D02*X011564D01*
X011864Y019552D02*X011814Y019602D01*X011714D01*X011664Y019552D01*
Y019502D01*X011714Y019452D01*X011814D01*X011864Y019402D01*Y019352D01*
X011814Y019302D01*X011714D01*X011664Y019352D01*X00065Y000806D02*
Y001106D01*X00085Y000806D01*Y001106D01*X00095Y000919D02*X001138D01*
Y000944D01*X001075Y001006D01*X001012D01*X00095Y000956D01*Y000869D01*
Y000856D01*X001Y000806D01*X0011D01*X001138Y000831D01*X0013Y001D02*
Y000806D01*Y001081D02*Y001088D01*X0015Y000806D02*Y001106D01*
X00205Y000806D02*Y001106D01*X00215Y000956D01*X00225Y001106D01*
Y000806D01*X00255D02*Y001006D01*X00235Y000871D02*X002368Y000934D01*
X002395Y000976D01*X00243Y000999D01*X002455Y001006D01*X002475D01*
X00251D01*X00255Y000986D01*X00235Y000869D02*Y000854D01*
X002352Y000844D01*X00236Y000831D01*X002378Y000821D01*X002412Y000806D01*
X002468D01*X00252Y000829D01*X00255Y000856D01*X002775Y000806D02*
X002712D01*X00265Y000831D02*X002675Y000806D01*X002812D01*
X002838Y000831D01*Y000881D01*X002812Y000906D01*X002675D01*
X00265Y000931D01*Y000981D01*X002675Y001006D01*X002812D01*
X002838Y000981D01*X003075Y000806D02*X003012D01*X00295Y000831D02*
X002975Y000806D01*X003112D01*X003138Y000831D01*Y000881D01*
X003112Y000906D01*X002975D01*X00295Y000931D01*Y000981D01*
X002975Y001006D01*X003112D01*X003138Y000981D01*X00325Y000919D02*
X003438D01*Y000944D01*X003375Y001006D01*X003312D01*X00325Y000956D01*
Y000869D01*Y000856D01*X0033Y000806D01*X0034D01*X003438Y000831D01*
X00355Y001006D02*X003575D01*X003662Y000806D01*X003738Y001006D02*
Y000981D01*X003612Y000694D01*X003588D01*X00415Y000906D02*Y000856D01*
X0042Y000806D01*X00425D01*X0043Y000856D01*Y001106D01*X00425D01*
X00435D01*X004638Y001006D02*Y000806D01*Y000856D02*X004588Y000806D01*
X0045D01*X00445Y000856D01*Y001006D01*X0048Y000806D02*Y001106D01*
X00535Y001056D02*X0054Y001106D01*X0055D01*X00555Y001056D01*Y001006D01*
X0055Y000956D01*X00535Y000856D01*Y000806D01*X00555D01*X00585Y001056D02*
X0058Y001106D01*X0057D01*X00565Y001056D01*Y000856D01*X0057Y000806D01*
X0058D01*X00585Y000856D01*Y001056D01*X00575Y001006D02*Y000906D01*
X00595Y001056D02*X006Y001106D01*X0061D01*X00615Y001056D01*Y001006D01*
X0061Y000956D01*X00595Y000856D01*Y000806D01*X00615D01*X0063Y001056D02*
X00635Y001106D01*Y000806D01*X0064D01*X00635D02*X0063D01*
X001038Y000128D02*Y000428D01*X001188D01*X001238Y000378D01*Y000328D01*
X001188Y000278D01*X001238Y000128D01*X001188Y000278D02*X001038D01*
X001338Y00024D02*X001526D01*Y000265D01*X001463Y000328D01*X001401D01*
X001338Y000278D01*Y00019D01*Y000178D01*X001388Y000128D01*X001488D01*
X001526Y000153D01*X001638Y000328D02*X001738Y000128D01*
X001838Y000328D01*X002288Y000378D02*X002338Y000428D01*Y000128D01*
X002388D01*X002338D02*X002288D01*X00065Y00175D02*X0006Y0018D01*
X0005D01*X00045Y00175D01*Y0017D01*X0005Y00165D01*X0006D01*
X00065Y0016D01*Y00155D01*X0006Y0015D01*X0005D01*X00045Y00155D01*
X0008Y001694D02*Y0015D01*Y001775D02*Y001781D01*X001044Y0015D02*
Y001638D01*X00109Y0017D01*X001138Y001638D01*Y0015D01*X00095Y001638D02*
X000997Y0017D01*X001044Y001637D01*X00095Y001725D02*Y0015D01*
X00125Y0017D02*Y001388D01*Y001562D02*X001312Y0015D01*X001375D01*
X001438Y001562D01*Y001638D01*X001375Y0017D01*X001312D01*
X00125Y00165D01*X0016Y0015D02*Y0018D01*X00185Y001612D02*X002038D01*
Y001638D01*X001975Y0017D01*X001912D01*X00185Y00165D01*Y001562D01*
Y00155D01*X0019Y0015D01*X002D01*X002038Y001525D01*X00265Y00175D02*
X0026Y0018D01*X0025D01*X00245Y00175D01*Y0017D01*X0025Y00165D01*
X0026D01*X00265Y0016D01*Y00155D01*X0026Y0015D01*X0025D01*
X00245Y00155D01*X00275Y0018D02*Y0015D01*Y00165D02*X002812Y0017D01*
X002875D01*X002938Y001638D01*Y0015D01*X003144D02*Y001638D01*
X00319Y0017D01*X003238Y001638D01*Y0015D01*X00305Y001638D02*
X003097Y0017D01*X003144Y001637D01*X00305Y001725D02*Y0015D01*X00355D02*
Y0017D01*X00335Y001565D02*X003368Y001628D01*X003395Y00167D01*
X00343Y001692D01*X003455Y0017D01*X003475D01*X00351D01*X00355Y00168D01*
X00335Y001562D02*Y001548D01*X003352Y001538D01*X00336Y001525D01*
X003378Y001515D01*X003412Y0015D01*X003468D01*X00352Y001522D01*
X00355Y00155D01*X00365Y001725D02*Y0015D01*Y001638D02*X003712Y0017D01*
X003775D01*X003838Y001638D01*Y0015D01*X004088Y0017D02*Y001675D01*
X00405Y0017D01*X004038D01*X004012Y001688D01*X003975Y00165D01*
X00395Y001588D01*Y001562D01*X003962Y001525D01*X004012Y0015D01*
X004075D01*X004138Y001538D01*X00425Y001612D02*X004438D01*Y001638D01*
X004375Y0017D01*X004312D01*X00425Y00165D01*Y001562D01*Y00155D01*
X0043Y0015D01*X0044D01*X004438Y001525D01*D12*X015Y0105D02*X023D01*
Y0085D01*X015D01*Y0105D01*Y00975D02*X01525D01*Y00925D01*X015D01*
X03975Y014707D02*X040457Y014D01*X041871Y015414D01*X041164Y016121D01*
X03975Y014707D01*X0395Y0165D02*X0385D01*Y0145D01*X0395D01*Y0165D01*
X04263Y009285D02*X041664Y009544D01*X041146Y007612D01*X042112Y007354D01*
X04263Y009285D01*X042121Y013414D02*X041414Y014121D01*X04Y012707D01*
X040707Y012D01*X042121Y013414D01*X040623Y011696D02*X041196Y010877D01*
X042835Y012024D01*X042261Y012844D01*X040623Y011696D01*X0305Y013D02*
X0315D01*Y015D01*X0305D01*Y013D01*X033701Y013141D02*X034641Y012799D01*
X035325Y014678D01*X034385Y01502D01*X033701Y013141D01*X038701Y005141D02*
X039641Y004799D01*X040325Y006678D01*X039385Y00702D01*X038701Y005141D01*
X0345Y0075D02*Y0065D01*X0365D01*Y0075D01*X0345D01*X040696Y004123D02*
X040123Y003304D01*X041761Y002156D01*X042335Y002976D01*
X040696Y004123D01*X027836Y012742D02*X028742Y013164D01*
X027897Y014977D01*X02699Y014554D01*X027836Y012742D01*X021696Y006877D02*
X020877Y006304D01*X022024Y004665D01*X022844Y005239D01*
X021696Y006877D01*X015141Y015201D02*X014201Y014859D01*X014885Y01298D01*
X015825Y013322D01*X015141Y015201D01*X0055Y0065D02*Y0055D01*X0075D01*
Y0065D01*X0055D01*X023646Y001612D02*X024612Y001354D01*X02513Y003285D01*
X024164Y003544D01*X023646Y001612D01*X027859Y004799D02*
X028799Y005141D01*X028115Y00702D01*X027175Y006678D01*X027859Y004799D01*
X015201Y004641D02*X016141Y004299D01*X016825Y006178D01*X015885Y00652D01*
X015201Y004641D01*X017125Y0046D02*X0181Y004375D01*X01855Y006323D01*
X017575Y006548D01*X017125Y0046D01*X019045Y004542D02*X020042Y004455D01*
X020216Y006447D01*X01922Y006534D01*X019045Y004542D01*X0235Y0065D02*
X0245D01*Y0085D01*X0235D01*Y0065D01*X0125Y0095D02*X0135D01*Y0115D01*
X0125D01*Y0095D01*X0135Y01D02*X0145D01*Y012D01*X0135D01*Y01D01*
X002156Y005239D02*X002976Y004665D01*X004123Y006304D01*
X003304Y006877D01*X002156Y005239D01*X0095Y0125D02*X0105D01*Y0145D01*
X0095D01*Y0125D01*X006804Y014623D02*X007623Y015196D01*
X006476Y016835D01*X005656Y016261D01*X006804Y014623D01*X0035Y013D02*
Y012D01*X0055D01*Y013D01*X0035D01*X000879Y007586D02*X001586Y006879D01*
X003Y008293D01*X002293Y009D01*X000879Y007586D01*X022065Y001684D02*
X022874Y002271D01*X021698Y003889D01*X020889Y003302D01*
X022065Y001684D01*X020359Y012799D02*X021299Y013141D01*X020615Y01502D01*
X019675Y014678D01*X020359Y012799D01*X017317Y012183D02*
X018183Y012683D01*X017183Y014415D01*X016317Y013915D01*
X017317Y012183D01*X018836Y012742D02*X019742Y013164D01*
X018897Y014977D01*X01799Y014554D01*X018836Y012742D01*X009603Y003523D02*
X01051Y003946D01*X009664Y005758D01*X008758Y005336D01*X009603Y003523D01*
X003586Y016121D02*X002879Y015414D01*X004293Y014D01*X005Y014707D01*
X003586Y016121D01*X001196Y012123D02*X000623Y011304D01*
X002261Y010156D01*X002835Y010976D01*X001196Y012123D01*
X024336Y013044D02*X02337Y012785D01*X023888Y010854D01*X024854Y011112D01*
X024336Y013044D01*X025336Y013544D02*X02437Y013285D01*X024888Y011354D01*
X025854Y011612D01*X025336Y013544D01*X012871Y005578D02*
X011886Y005752D01*X011539Y003782D01*X012523Y003608D01*
X012871Y005578D01*X014562Y005565D02*X013577Y005738D01*X01323Y003769D01*
X014215Y003595D01*X014562Y005565D01*X025921Y012406D02*
X026906Y012579D01*X026558Y014549D01*X025573Y014375D01*
X025921Y012406D01*X028094Y007579D02*X029079Y007406D01*
X029427Y009375D01*X028442Y009549D01*X028094Y007579D01*
X015724Y000763D02*X01649Y001406D01*X015204Y002938D01*X014438Y002296D01*
X015724Y000763D01*X026Y009D02*X025D01*Y007D01*X026D01*Y009D01*
X031758Y012664D02*X032664Y012242D01*X03351Y014054D01*X032603Y014477D01*
X031758Y012664D01*X037739Y003844D02*X037165Y003024D01*
X038804Y001877D01*X039377Y002696D01*X037739Y003844D01*X036406Y00299D02*
X035763Y002224D01*X037296Y000938D01*X037938Y001704D01*X036406Y00299D01*
X044201Y001359D02*X043859Y002299D01*X04198Y001615D01*X042322Y000675D01*
X044201Y001359D01*X04602Y005385D02*X045678Y006325D01*X043799Y005641D01*
X044141Y004701D01*X04602Y005385D01*X043Y008D02*Y007D01*X045D01*Y008D01*
X043D01*X043927Y010616D02*X044394Y010347D01*X044917D01*
X045384Y010616D01*X045653Y011083D01*Y011606D01*X045384Y012073D01*
X044917Y012341D01*X04462Y012483D01*X043517Y01138D01*X043659Y011083D01*
X043927Y010616D01*X045207Y011146D02*X044854Y010793D01*
X042573Y005884D02*X042106Y006153D01*X041583D01*X041116Y005884D01*
X040847Y005417D01*Y004894D01*X041116Y004427D01*X041583Y004159D01*
X04188Y004017D01*X042983Y00512D01*X042841Y005417D01*X042573Y005884D01*
X041293Y005354D02*X041646Y005707D01*X030073Y016884D02*
X029606Y017153D01*X029083D01*X028616Y016884D01*X028347Y016417D01*
Y015894D01*X028616Y015427D01*X029083Y015159D01*X02938Y015017D01*
X030483Y01612D01*X030341Y016417D01*X030073Y016884D01*X028793Y016354D02*
X029146Y016707D01*X037026Y016264D02*X037119Y016795D01*X03694Y017286D01*
X036528Y017633D01*X035998Y017726D01*X035506Y017547D01*
X035159Y017135D01*X035067Y016604D01*X035035Y016277D01*
X036449Y015618D01*X03668Y015852D01*X037026Y016264D01*X03609Y017285D02*
X036544Y017074D01*X036573Y005384D02*X036106Y005653D01*X035583D01*
X035116Y005384D01*X034847Y004917D01*Y004394D01*X035116Y003927D01*
X035583Y003659D01*X03588Y003517D01*X036983Y00462D01*X036841Y004917D01*
X036573Y005384D01*X035293Y004854D02*X035646Y005207D01*
X021567Y015159D02*X021474Y014628D01*X021653Y014136D01*X022065Y01379D01*
X022596Y013697D01*X023088Y013876D01*X023434Y014288D01*
X023527Y014818D01*X023558Y015146D01*X022145Y015805D01*
X021914Y015571D01*X021567Y015159D01*X022503Y014137D02*X02205Y014349D01*
X011116Y008573D02*X010847Y008106D01*Y007583D01*X011116Y007116D01*
X011583Y006847D01*X012106D01*X012573Y007116D01*X012841Y007583D01*
X012983Y00788D01*X01188Y008983D01*X011583Y008841D01*X011116Y008573D01*
X011646Y007293D02*X011293Y007646D01*X031073Y005884D02*
X030606Y006153D01*X030083D01*X029616Y005884D01*X029347Y005417D01*
Y004894D01*X029616Y004427D01*X030083Y004159D01*X03038Y004017D01*
X031483Y00512D01*X031341Y005417D01*X031073Y005884D01*X029793Y005354D02*
X030146Y005707D01*X043941Y015393D02*X0435Y015083D01*X043279Y014609D01*
X043325Y014072D01*X043635Y013632D01*X044109Y013411D01*
X044646Y013457D01*X045086Y013766D01*X04534Y013976D01*X044806Y015442D01*
X044478Y015439D01*X043941Y015393D01*X043911Y014073D02*
X043774Y014449D01*X04403Y014329D02*X043654Y014192D01*X044599Y004332D02*
X044158Y004023D01*X043937Y003549D01*X043983Y003012D01*
X044293Y002571D01*X044767Y00235D01*X045304Y002397D01*X045744Y002706D01*
X045998Y002915D01*X045464Y004381D01*X045135Y004379D01*
X044599Y004332D01*X044569Y003012D02*X044432Y003388D01*
X044688Y003269D02*X044312Y003132D01*X0105Y0085D02*X0035D01*Y0105D01*
X0105D01*Y0085D01*Y00925D02*X01025D01*Y00975D01*X0105D01*X0305Y0105D02*
X0385D01*Y0085D01*X0305D01*Y0105D01*Y00975D02*X03075D01*Y00925D01*
X0305D01*X043Y016D02*Y018D01*X044Y017D01*X042D01*X043Y016D01*
X047Y007D02*Y009D01*X048Y008D01*X046D01*X047Y007D01*X0476Y0082D02*
X0472D01*Y0086D01*X0476Y0082D01*X0468Y0078D02*X0464D01*X0468Y0074D01*
Y0078D01*X0475Y013D02*Y01475D01*X04725D01*Y013D01*X0475Y01475D02*
X048Y01525D01*X0485Y01475D01*X04875D01*Y013D01*X0485Y01475D02*Y013D01*
X04725D01*X0485D02*X04875D01*Y01275D01*X04725D01*Y013D01*D13*
X0489Y0126D02*X0471D01*Y0147D01*X0489D02*Y0127D01*D12*X0465Y01D02*
X046517Y010129D01*X046567Y01025D01*X046646Y010354D01*X04675Y010433D01*
X046871Y010483D01*X047Y0105D01*X047129Y010483D01*X04725Y010433D01*
X047354Y010354D01*X047433Y01025D01*X047483Y010129D01*X0475Y01D01*
X047483Y009871D01*X047433Y00975D01*X047354Y009646D01*X04725Y009567D01*
X047129Y009517D01*X047Y0095D01*X046871Y009517D01*X04675Y009567D01*
X046646Y009646D01*X046567Y00975D01*X046517Y009871D01*X0465Y01D01*
X047Y0115D02*X047195Y011481D01*X047383Y011424D01*X047556Y011331D01*
X047707Y011207D01*X047831Y011056D01*X047924Y010883D01*
X047981Y010695D01*X048Y0105D01*X047981Y010305D01*X047924Y010117D01*
X047831Y009944D01*X047707Y009793D01*X047556Y009669D01*
X047383Y009576D01*X047195Y009519D01*X047Y0095D01*X046805Y009519D01*
X046617Y009576D01*X046444Y009669D01*X046293Y009793D01*
X046169Y009944D01*X046076Y010117D01*X046019Y010305D01*X046Y0105D01*
X046019Y010695D01*X046076Y010883D01*X046169Y011056D01*
X046293Y011207D01*X046444Y011331D01*X046617Y011424D01*
X046805Y011481D01*X047Y0115D01*X044841Y016806D02*X045385Y017645D01*
X045176Y017781D01*X044631Y016942D01*X046308Y015853D01*
X046853Y016692D01*X045176Y017781D01*X024983Y018032D02*
X025106Y017336D01*X024696Y017623D01*X024123Y016804D01*
X024532Y016517D01*X023836Y016394D01*X024007Y016298D01*
X024193Y016237D01*X024388Y016213D01*X024583Y016228D01*
X024772Y016281D01*X024947Y01637D01*X025101Y016491D01*X025229Y01664D01*
X023836Y016394D02*X023687Y016522D01*X023566Y016676D01*
X023478Y016851D01*X023425Y01704D01*X02341Y017235D01*X023433Y01743D01*
X023494Y017616D01*X02359Y017787D01*X023718Y017936D01*X023872Y018057D01*
X024047Y018145D01*X024236Y018198D01*X024431Y018213D01*X024626Y01819D01*
X024812Y018129D01*X024983Y018032D01*X025132Y017905D01*
X025253Y017751D01*X025342Y017576D01*X025394Y017387D01*
X025409Y017191D01*X025386Y016997D01*X025325Y01681D01*X025229Y01664D01*
X03175Y01625D02*X03325D01*Y01775D01*X03175D01*Y01625D01*X032Y0175D02*
Y0165D01*X033D01*Y0175D01*X032D01*X02575Y00275D02*X02725D01*Y00425D01*
X02575D01*Y00275D01*X026Y004D02*Y003D01*X027D01*Y004D01*X026D01*
X02825Y01825D02*Y01675D01*X02675D01*Y01825D01*X02825D01*X027Y018D02*
Y017D01*X028D01*Y018D01*X027D01*X02675Y0185D02*X0265D01*Y0165D01*
X0285D01*Y0185D01*X02675D01*X03425Y00275D02*Y00125D01*X03275D01*
Y00275D01*X03425D01*X033Y0025D02*Y0015D01*X034D01*Y0025D01*X033D01*
X03275Y003D02*X0325D01*Y001D01*X0345D01*Y003D01*X03275D01*
X0035Y00225D02*X0055D01*X0045Y004D01*X0035Y00225D01*X01Y0162D02*
X012D01*X011Y01795D01*X01Y0162D01*X011Y0175D02*X0105Y0165D01*X0115D01*
X011Y0175D01*X002Y018D02*X0015Y017D01*X002Y0175D01*X0025Y018D01*
X002Y017D01*X0015Y018D01*X002Y0175D01*X0025Y017D01*X002Y018D01*
X003Y0165D02*X00225Y017D01*X002Y0165D01*X00175Y017D01*X001Y0165D01*
X0015Y0175D01*X001Y0185D01*X00175Y018D01*X002Y0185D01*X00225Y018D01*
X003Y0185D01*X0025Y0175D01*X003Y0165D01*X0085Y002D02*X0095Y001D01*
X0085Y003D01*X0075Y001D01*X0085Y002D01*X0075Y003D01*X0085Y002D02*
X0095Y003D01*X0085Y001D01*X0075Y003D01*X012812Y002269D02*
X013111Y001628D01*X012641Y001799D01*X012299Y000859D01*
X012769Y000688D01*X012128Y000389D01*X012318Y000341D01*X012513Y00033D01*
X012708Y000358D01*X012892Y000423D01*X013061Y000523D01*
X013207Y000653D01*X013325Y00081D01*X01341Y000987D01*X012128Y000389D02*
X011951Y000474D01*X011794Y000592D01*X011663Y000738D01*
X011564Y000906D01*X011498Y001091D01*X011471Y001285D01*
X011481Y001481D01*X01153Y001671D01*X011615Y001848D01*X011733Y002005D01*
X011879Y002135D01*X012047Y002235D01*X012232Y0023D01*X012426Y002328D01*
X012622Y002317D01*X012812Y002269D01*X012989Y002184D01*
X013145Y002066D01*X013276Y00192D01*X013376Y001752D01*X013441Y001567D01*
X013469Y001373D01*X013458Y001177D01*X01341Y000987D01*X0175Y0025D02*
Y00325D01*X01825D01*Y0025D01*X0175D01*X01675D01*Y00175D01*X0175D01*
Y0025D01*X027Y0095D02*X02775D01*Y00875D01*X027D01*Y0095D01*Y01025D01*
X02625D01*Y0095D01*X027D01*X0265Y01D02*Y0097D01*X0268D01*Y01D01*
X0265D01*X0272Y0093D02*Y009D01*X0275D01*Y0093D01*X0272D01*D11*
X015786Y00925D02*Y009679D01*X015571Y009429D01*X015857D01*
X016286Y009607D02*X016214Y009679D01*X016071D01*X016Y009607D01*
Y009321D01*X016071Y00925D01*X016214D01*X016286Y009321D01*Y009607D01*
X016143Y009536D02*Y009393D01*X0165Y009607D02*X016571Y009679D01*
Y00925D01*X016643D01*X016571D02*X0165D01*X017143Y009679D02*X016857D01*
Y009464D01*X016929Y009536D01*X017071D01*X017143Y009464D01*Y009321D01*
X017071Y00925D01*X016929D01*X016857Y009321D01*X040306Y014707D02*
Y014808D01*X040609Y014505D01*X040659Y014556D01*X040609Y014505D02*
X040558Y014455D01*X04076Y015162D02*X040659Y015162D01*X040558Y015061D01*
Y01496D01*X04076Y014758D01*X040861D01*X040962Y014859D01*
X040962Y01496D01*X04076Y015162D01*X04071Y01501D02*X040811Y014909D01*
X041063Y015465D02*X040962D01*X040861Y015364D01*Y015263D01*
X041063Y015061D01*X041164D01*X041265Y015162D01*Y015263D01*
X041063Y015465D01*X041013Y015313D02*X041114Y015212D01*
X041139Y015642D02*X041442Y015338D01*X041366Y015414D02*Y015717D01*
X041594Y01549D02*X041366D01*X039107Y016107D02*X039179Y016036D01*
X03875D01*Y015964D01*Y016036D02*Y016107D01*X039107Y015464D02*
X039179Y015536D01*Y015679D01*X039107Y01575D01*X038821D01*
X03875Y015679D01*Y015536D01*X038821Y015464D01*X039107D01*
X039036Y015607D02*X038893D01*X03875Y015321D02*X039179D01*
X038964Y015179D01*X039179Y015036D01*X03875D01*X042149Y009008D02*
X042199Y00892D01*X041785Y009031D01*X041767Y008962D01*X041785Y009031D02*
X041804Y0091D01*X041982Y008387D02*X04207Y008437D01*X042107Y008575D01*
X042056Y008663D01*X04178Y008737D01*X041693Y008686D01*X041656Y008548D01*
X041706Y008461D01*X041982Y008387D01*X04195Y008543D02*X041812Y00858D01*
X041601Y008341D02*X042014Y00823D01*X041771Y008148D01*X041941Y007954D01*
X041527Y008065D01*X041566Y013414D02*Y013313D01*X041263Y013616D01*
X041212Y013566D01*X041263Y013616D02*X041313Y013667D01*X041111Y01296D02*
X041212Y01296D01*X041313Y013061D01*Y013162D01*X041111Y013364D01*
X04101D01*X040909Y013263D01*X040909Y013162D01*X041111Y01296D01*
X041162Y013111D02*X041061Y013212D01*X041035Y012783D02*
X040732Y013086D01*X040808Y01301D02*X040808Y012707D01*X040581Y012934D02*
X040808D01*X04117Y0116D02*X041187Y011699D01*X041433Y011348D01*
X041492Y011389D01*X041433Y011348D02*X041375Y011307D01*
X041697Y011969D02*X041597Y011986D01*X04148Y011904D01*X041462Y011805D01*
X041626Y011571D01*X041726Y011553D01*X041843Y011635D01*X04186Y011735D01*
X041697Y011969D01*X04162Y011828D02*X041702Y011711D01*X041802Y01213D02*
X042048Y011778D01*X041986Y011866D02*X042039Y012165D01*
X042223Y011901D02*X041999Y011941D01*X030893Y013607D02*
X030821Y013536D01*Y013393D01*X030893Y013321D01*X031179D01*
X03125Y013393D01*Y013536D01*X031179Y013607D01*X030893D01*
X030964Y013464D02*X031107D01*X034205Y013376D02*X034162Y013467D01*
X034565Y013321D01*X034589Y013388D01*X034565Y013321D02*X03454Y013254D01*
X034425Y01398D02*X034333Y013937D01*X034284Y013803D01*X034327Y013711D01*
X034595Y013614D01*X034687Y013656D01*X034736Y01379D01*X034693Y013882D01*
X034425Y01398D01*X034443Y013821D02*X034577Y013772D01*X034419Y014172D02*
X034821Y014025D01*X034721Y014062D02*X034592Y014337D01*
X034895Y014227D02*X034689Y014131D01*X039278Y005577D02*
X039186Y005534D01*X039138Y0054D01*X03918Y005309D01*X039449Y005211D01*
X03954Y005254D01*X039589Y005388D01*X039546Y005479D01*X039278Y005577D01*
X039296Y005418D02*X03943Y005369D01*X035107Y007107D02*X035036Y007179D01*
X034893D01*X034821Y007107D01*Y006821D01*X034893Y00675D01*X035036D01*
X035107Y006821D01*Y007107D01*X034964Y007036D02*Y006893D01*
X040968Y003453D02*X040951Y003552D01*X040834Y003634D01*
X040734Y003617D01*X04057Y003383D01*X040588Y003283D01*X040705Y003201D01*
X040804Y003219D01*X040968Y003453D01*X04081Y003476D02*X040728Y003359D01*
X028026Y013264D02*X027931Y013298D01*X028319Y01348D01*X028289Y013544D01*
X028319Y01348D02*X028349Y013415D01*X027754Y013847D02*X027719Y013752D01*
X02778Y013622D01*X027875Y013588D01*X028134Y013708D01*X028168Y013803D01*
X028108Y013933D01*X028013Y013967D01*X027754Y013847D01*
X027879Y013747D02*X028008Y013808D01*X027614Y013978D02*
X028002Y014159D01*X027905Y014114D02*X02762Y014218D01*X027912Y014354D02*
X027834Y01414D01*X021723Y006155D02*X02174Y006254D01*X021658Y006371D01*
X021559Y006389D01*X021325Y006225D01*X021307Y006125D01*
X021389Y006008D01*X021489Y005991D01*X021723Y006155D01*
X021582Y006231D02*X021465Y006149D01*X014979Y014496D02*
X015022Y014588D01*X014973Y014722D01*X014882Y014765D01*
X014613Y014667D01*X01457Y014575D01*X014619Y014441D01*X014711Y014399D01*
X014979Y014496D01*X014863Y014606D02*X014729Y014557D01*
X006107Y006107D02*X006036Y006179D01*X005893D01*X005821Y006107D01*
Y005821D01*X005893Y00575D01*X006036D01*X006107Y005821D01*Y006107D01*
X005964Y006036D02*Y005893D01*X024183Y002097D02*X024096Y002047D01*
X024059Y001909D01*X024109Y001821D01*X024385Y001747D01*
X024473Y001798D01*X02451Y001936D01*X024459Y002023D01*X024183Y002097D01*
X024215Y001941D02*X024353Y001904D01*X028094Y005302D02*
X028002Y005345D01*X028405Y005492D01*X028381Y005559D01*
X028405Y005492D02*X02843Y005425D01*X027874Y005906D02*X027831Y005815D01*
X02788Y005681D01*X027972Y005638D01*X02824Y005736D01*X028283Y005827D01*
X028234Y005961D01*X028143Y006004D01*X027874Y005906D01*X02799Y005797D02*
X028124Y005846D01*X027746Y00605D02*X028149Y006196D01*X028048Y00616D02*
X027773Y006288D01*X028075Y006398D02*X027979Y006192D01*
X015613Y004833D02*X016114Y004955D01*X016016Y004686D02*
X015711Y005101D01*X017511Y004841D02*X017993Y005023D01*
X017928Y004744D02*X017575Y005119D01*X019394Y004834D02*
X019846Y005081D01*X019821Y004797D02*X019419Y005118D01*
X023821Y006821D02*X02425Y007107D01*Y006821D02*X023821Y007107D01*
X012821Y009821D02*X01325Y010107D01*Y009821D02*X012821Y010107D01*
Y01025D02*X01325Y010536D01*Y01025D02*X012821Y010536D01*
X013821Y010321D02*X014036Y010464D01*X01425D01*X014036D02*
X013821Y010607D01*Y01075D02*X014036Y010893D01*X01425D01*X014036D02*
X013821Y011036D01*X002704Y005335D02*X002686Y005435D01*
X003037Y005189D01*X003078Y005248D01*X003037Y005189D02*
X002996Y005131D01*X003072Y005862D02*X002973Y005844D01*
X002891Y005727D01*X002908Y005628D01*X003143Y005464D01*
X003242Y005482D01*X003324Y005599D01*X003306Y005698D01*
X003072Y005862D01*X003049Y005704D02*X003166Y005622D01*
X003116Y006049D02*X003467Y005803D01*X00338Y005865D02*X003327Y006163D01*
X00359Y005979D02*X003366Y005939D01*X009893Y012893D02*X009821Y012964D01*
X01025D01*Y013036D01*Y012964D02*Y012893D01*X009893Y013536D02*
X009821Y013464D01*Y013321D01*X009893Y01325D01*X010179D01*
X01025Y013321D01*Y013464D01*X010179Y013536D01*X009893D01*
X009964Y013393D02*X010107D01*X009821Y013714D02*X01025D01*X010143D02*
X009929Y013929D01*X01025D02*X010089Y013768D01*X0069Y01517D02*
X006801Y015187D01*X007152Y015433D01*X007111Y015492D01*
X007152Y015433D02*X007193Y015375D01*X006531Y015697D02*
X006514Y015597D01*X006596Y01548D01*X006695Y015462D01*X006929Y015626D01*
X006947Y015726D01*X006865Y015843D01*X006765Y01586D01*X006531Y015697D01*
X006672Y01562D02*X006789Y015702D01*X006286Y016048D02*X006268Y015948D01*
X00635Y015831D01*X006449Y015814D01*X006684Y015977D01*X006701Y016077D01*
X006619Y016194D01*X00652Y016211D01*X006286Y016048D01*X006426Y015972D02*
X006543Y016053D01*X006125Y016153D02*X006476Y016399D01*
X006388Y016337D02*X00609Y01639D01*X006353Y016574D02*X006313Y01635D01*
X003821Y012607D02*X003893Y012679D01*X004036D01*X004107Y012607D01*
Y012536D01*X004036Y012464D01*X003821Y012321D01*Y01225D01*X004107D01*
X00425Y012607D02*X004321Y012679D01*X004464D01*X004536Y012607D01*
Y012536D01*X004464Y012464D01*X00425Y012321D01*Y01225D01*X004536D01*
X004714Y012679D02*Y01225D01*Y012357D02*X004929Y012571D01*Y01225D02*
X004768Y012411D01*X001384Y007535D02*Y007636D01*X001485Y007737D01*
X001586D01*X001636Y007687D01*X001636Y007586D01*X001586Y007333D01*
X001636Y007283D01*X001838Y007485D01*X001687Y007838D02*Y007939D01*
X001788Y00804D01*X001889Y00804D01*X001939Y00799D01*Y007889D01*
X001889Y007636D01*X001939Y007586D01*X002141Y007788D01*
X001965Y008217D02*X002268Y007914D01*X002192Y00799D02*X002192Y008293D01*
X002419Y008066D02*X002192D01*X022136Y002133D02*X022225Y002374D01*
X022399Y0025D01*X022225Y002374D02*X021968Y002364D01*X020551Y013211D02*
X020856Y013626D01*X020954Y013357D02*X020454Y013479D01*
X020405Y013614D02*X02071Y014029D01*X020807Y01376D02*X020307Y013882D01*
X017435Y012622D02*X017663Y013084D01*X017806Y012836D02*X017292Y01287D01*
X01722Y012993D02*X017449Y013455D01*X017592Y013208D02*X017078Y013241D01*
X018991Y013169D02*X019259Y013609D01*X019379Y01335D02*X01887Y013428D01*
X01881Y013557D02*X019078Y013997D01*X019198Y013739D02*X018689Y013816D01*
X009793Y004045D02*X009698Y00408D01*X010087Y004261D01*X010057Y004325D01*
X010087Y004261D02*X010117Y004196D01*X009522Y004628D02*
X009487Y004533D01*X009548Y004403D01*X009642Y004369D01*
X009901Y004489D01*X009936Y004584D01*X009876Y004714D01*
X009781Y004748D01*X009522Y004628D01*X009647Y004528D02*
X009776Y004589D01*X009341Y005016D02*X009306Y004921D01*
X009366Y004792D01*X009461Y004757D01*X00972Y004878D01*X009755Y004973D01*
X009694Y005102D01*X0096Y005137D01*X009341Y005016D01*X009466Y004917D02*
X009595Y004977D01*X0092Y005148D02*X009589Y005329D01*X009492Y005284D02*
X009207Y005387D01*X009498Y005523D02*X009421Y005309D01*
X003586Y015566D02*X003687D01*X003384Y015263D01*X003434Y015212D01*
X003384Y015263D02*X003333Y015313D01*X00404Y015111D02*X00404Y015212D01*
X003939Y015313D01*X003838D01*X003636Y015111D01*Y01501D01*
X003737Y014909D01*X003838Y014909D01*X00404Y015111D01*X003889Y015162D02*
X003788Y015061D01*X004343Y014808D02*Y014909D01*X004242Y01501D01*
X004141D01*X003939Y014808D01*Y014707D01*X00404Y014606D01*X004141D01*
X004343Y014808D01*X004192Y014859D02*X004091Y014758D01*X00452Y014732D02*
X004217Y014429D01*X004293Y014505D02*X004596D01*X004369Y014278D02*
Y014505D01*X001293Y011576D02*X001392Y011593D01*X001146Y011242D01*
X001205Y011201D01*X001146Y011242D02*X001088Y011283D01*
X001819Y011207D02*X001802Y011306D01*X001685Y011388D01*
X001585Y011371D01*X001422Y011137D01*X001439Y011037D01*
X001556Y010955D01*X001656Y010973D01*X001819Y011207D01*X001661Y01123D02*
X00158Y011113D01*X00217Y010961D02*X002153Y011061D01*X002036Y011143D01*
X001936Y011125D01*X001773Y010891D01*X00179Y010791D01*X001907Y01071D01*
X002007Y010727D01*X00217Y010961D01*X002013Y010985D02*X001931Y010868D01*
X002358Y010917D02*X002112Y010566D01*X002173Y010654D02*
X002472Y010707D01*X002287Y010443D02*X002248Y010667D01*
X024058Y012563D02*X024146Y012513D01*X023732Y012402D01*X02375Y012333D01*
X023732Y012402D02*X023713Y012471D01*X024225Y011942D02*X024275Y01203D01*
X024238Y012168D01*X024151Y012218D01*X023875Y012144D01*
X023824Y012057D01*X023861Y011919D01*X023949Y011868D01*
X024225Y011942D01*X024119Y012062D02*X023981Y012025D01*X02434Y011788D02*
X023926Y011677D01*X024029Y011705D02*X024292Y011553D01*X023981Y01147D02*
X024095Y011667D01*X02475Y012833D02*X025164Y012944D01*X024867Y013086D01*
X024941Y01281D01*X02522Y012737D02*X025294Y012461D01*X024824Y012557D01*
X025335Y012028D02*X025386Y012116D01*X025349Y012254D01*
X025261Y012304D01*X024986Y01223D01*X024935Y012143D01*X024972Y012005D01*
X025059Y011954D01*X025335Y012028D01*X025229Y012148D02*
X025091Y012111D01*X012039Y005181D02*X012461Y005106D01*
X012252Y005361D01*X012203Y005079D01*X012424Y004895D02*
X012374Y004614D01*X011989Y004899D01*X01223Y004204D02*X012312Y004262D01*
X012337Y004403D01*X012279Y004486D01*X011998Y004535D01*
X011915Y004477D01*X01189Y004337D01*X011948Y004254D01*X01223Y004204D01*
X012184Y004357D02*X012043Y004382D01*X014107Y005246D02*
X014165Y005163D01*X013743Y005238D01*X01373Y005167D01*X013743Y005238D02*
X013755Y005308D01*X013995Y004613D02*X014078Y004671D01*
X014103Y004812D01*X014045Y004894D01*X013764Y004944D01*
X013681Y004886D01*X013656Y004745D01*X013714Y004662D01*
X013995Y004613D01*X01395Y004766D02*X013809Y004791D01*X014035Y004425D02*
X013613Y004499D01*X013718Y00448D02*X013892Y004232D01*X013575Y004288D02*
X013762Y004418D01*X026252Y01279D02*X026169Y012848D01*X026144Y012989D01*
X026202Y013072D01*X026273Y013084D01*X026355Y013026D01*
X026413Y013109D01*X026484Y013121D01*X026566Y013063D01*
X026591Y012923D01*X026533Y01284D01*X026355Y013026D02*X026368Y012956D01*
X026177Y013212D02*X026095Y01327D01*X02607Y013411D01*X026128Y013494D01*
X026198Y013506D01*X026281Y013448D01*X026339Y013531D01*
X026409Y013543D01*X026492Y013485D01*X026517Y013345D01*
X026459Y013262D01*X026281Y013448D02*X026293Y013378D01*
X026026Y013657D02*X026449Y013732D01*X026343Y013713D02*
X026095Y013887D01*X026411Y013943D02*X026281Y013757D01*
X028537Y007828D02*X028479Y00791D01*X028504Y008051D01*X028587Y008109D01*
X028657Y008097D01*X028715Y008014D01*X028798Y008072D01*
X028868Y008059D01*X028926Y007977D01*X028901Y007836D01*
X028818Y007778D01*X028715Y008014D02*X028703Y007943D01*X028612Y00825D02*
X028554Y008332D01*X028578Y008473D01*X028661Y008531D01*
X028732Y008519D01*X028789Y008436D01*X028872Y008494D01*
X028943Y008481D01*X029Y008399D01*X028976Y008258D01*X028893Y0082D01*
X028789Y008436D02*X028777Y008365D01*X028622Y008719D02*
X029044Y008645D01*X028938Y008663D02*X028765Y008912D01*
X029081Y008856D02*X028895Y008725D01*X015818Y001262D02*
X015718Y001271D01*X015626Y00138D01*X015635Y001481D01*X015689Y001527D01*
X01579Y001518D01*X015799Y001619D01*X015854Y001665D01*X015954Y001656D01*
X016046Y001547D01*X016037Y001446D01*X01579Y001518D02*X015836Y001464D01*
X015543Y001591D02*X015442Y001599D01*X01535Y001709D01*X015359Y001809D01*
X015414Y001855D01*X015514Y001847D01*X015523Y001947D01*
X015578Y001993D01*X015679Y001984D01*X01577Y001875D01*X015762Y001774D01*
X015514Y001847D02*X01556Y001792D01*X01519Y0019D02*X015518Y002176D01*
X015436Y002107D02*X015134Y002133D01*X01538Y00234D02*X01536Y002114D01*
X025607Y008679D02*X025679Y008607D01*Y008464D01*X025607Y008393D01*
X025536D01*X025464Y008464D01*X025393Y008393D01*X025321D01*
X02525Y008464D01*Y008607D01*X025321Y008679D01*X025464Y008464D02*
Y008536D01*X025607Y00825D02*X025679Y008179D01*Y008036D01*
X025607Y007964D01*X025536D01*X025464Y008036D01*X025393Y007964D01*
X025321D01*X02525Y008036D01*Y008179D01*X025321Y00825D01*
X025464Y008036D02*Y008107D01*X025679Y007786D02*X02525D01*X025357D02*
X025571Y007571D01*X02525D02*X025411Y007732D01*X03225Y01279D02*
X032216Y012885D01*X032276Y013014D01*X032371Y013049D01*
X032436Y013018D01*X03247Y012924D01*X032565Y012958D01*X03263Y012928D01*
X032664Y012833D01*X032604Y012704D01*X032509Y012669D01*X03247Y012924D02*
X03244Y012859D01*X032431Y013178D02*X032397Y013273D01*X032457Y013403D01*
X032552Y013437D01*X032617Y013407D01*X032651Y013312D01*
X032746Y013347D01*X032811Y013316D01*X032845Y013221D01*
X032785Y013092D01*X03269Y013057D01*X032651Y013312D02*X032621Y013247D01*
X032563Y013629D02*X032951Y013448D01*X032854Y013493D02*X03275Y013778D01*
X033042Y013642D02*X032828Y013564D01*X037777Y003337D02*
X037876Y003355D01*X037993Y003273D01*X038011Y003173D01*X03797Y003115D01*
X03787Y003097D01*X037888Y002998D01*X037847Y002939D01*X037748Y002922D01*
X037631Y003004D01*X037613Y003103D01*X03787Y003097D02*X037812Y003138D01*
X038128Y003092D02*X038227Y003109D01*X038344Y003027D01*
X038362Y002928D01*X038321Y002869D01*X038222Y002852D01*
X038239Y002752D01*X038198Y002694D01*X038099Y002676D01*
X037982Y002758D01*X037964Y002857D01*X038222Y002852D02*
X038163Y002893D01*X038549Y002884D02*X038303Y002533D01*X038365Y00262D02*
X038663Y002673D01*X038479Y00241D02*X038439Y002634D01*X036455Y002437D02*
X036555Y002445D01*X03628Y002117D01*X036335Y002071D01*X03628Y002117D02*
X036225Y002163D01*X036947Y002023D02*X036938Y002124D01*
X036829Y002216D01*X036728Y002207D01*X036545Y001988D01*
X036553Y001887D01*X036663Y001796D01*X036764Y001804D01*
X036947Y002023D01*X036792Y00206D02*X0367Y001951D01*X03713Y001963D02*
X036854Y001635D01*X036923Y001717D02*X037225Y001743D01*
X037019Y001497D02*X036999Y001724D01*X043698Y001594D02*
X043655Y001502D01*X043508Y001905D01*X043441Y001881D01*
X043508Y001905D02*X043575Y00193D01*X043094Y001374D02*X043185Y001331D01*
X043319Y00138D01*X043362Y001472D01*X043264Y00174D01*X043173Y001783D01*
X043039Y001734D01*X042996Y001643D01*X043094Y001374D01*X043203Y00149D02*
X043154Y001624D01*X04295Y001246D02*X042804Y001649D01*X04284Y001548D02*
X042712Y001273D01*X042602Y001575D02*X042808Y001479D01*
X044302Y005406D02*X044345Y005498D01*X044492Y005095D01*
X044559Y005119D01*X044492Y005095D02*X044425Y00507D01*X044906Y005626D02*
X044815Y005669D01*X044681Y00562D01*X044638Y005528D01*X044736Y00526D01*
X044827Y005217D01*X044961Y005266D01*X045004Y005357D01*
X044906Y005626D01*X044797Y00551D02*X044846Y005376D01*X04505Y005754D02*
X045196Y005351D01*X04516Y005452D02*X045288Y005727D01*X045398Y005425D02*
X045192Y005521D01*X043393Y007607D02*X043464Y007679D01*Y00725D01*
X043536D01*X043464D02*X043393D01*X044036Y007607D02*X043964Y007679D01*
X043821D01*X04375Y007607D01*Y007321D01*X043821Y00725D01*X043964D01*
X044036Y007321D01*Y007607D01*X043893Y007536D02*Y007393D01*
X044464Y007607D02*X044393Y007679D01*X04425D01*X044179Y007607D01*
Y007321D01*X04425Y00725D01*X044393D01*X044464Y007321D01*Y007607D01*
X044321Y007536D02*Y007393D01*X044643Y007679D02*Y00725D01*Y007357D02*
X044857Y007571D01*Y00725D02*X044696Y007411D01*X009429Y009321D02*
Y00975D01*X009143D01*X009D02*Y009321D01*X008857Y009536D01*
X008714Y009321D01*Y00975D01*X008571Y009393D02*X0085Y009321D01*
X008357D01*X008286Y009393D01*Y009464D01*X008357Y009536D01*
X008286Y009607D01*Y009679D01*X008357Y00975D01*X0085D01*
X008571Y009679D01*X008357Y009536D02*X008429D01*X008143Y009393D02*
X008071Y009321D01*X007929D01*X007857Y009393D01*Y009464D01*
X007929Y009536D01*X008143Y009679D01*Y00975D01*X007857D01*X0075D02*
Y009321D01*X007714Y009571D01*X007429D01*X031286Y00925D02*Y009679D01*
X031071Y009429D01*X031357D01*X031786Y009679D02*X0315D01*Y009464D01*
X031571Y009536D01*X031714D01*X031786Y009464D01*Y009321D01*
X031714Y00925D01*X031571D01*X0315Y009321D01*X031929Y009607D02*
X032Y009679D01*X032143D01*X032214Y009607D01*Y009536D01*
X032143Y009464D01*X031929Y009321D01*Y00925D01*X032214D01*
X032643Y009607D02*X032571Y009679D01*X032429D01*X032357Y009607D01*
Y009321D01*X032429Y00925D01*X032571D01*X032643Y009321D01*Y009607D01*
X0325Y009536D02*Y009393D01*
M02*